<?xml version="1.0" standalone="no"?>
<!DOCTYPE svg PUBLIC "-//W3C//DTD SVG 20010904//EN"
 "http://www.w3.org/TR/2001/REC-SVG-20010904/DTD/svg10.dtd">
<svg version="1.0" xmlns="http://www.w3.org/2000/svg"
 width="512.000000pt" height="512.000000pt" viewBox="0 0 512.000000 512.000000"
 preserveAspectRatio="xMidYMid meet">
<metadata>
Created by potrace 1.15, written by Peter Selinger 2001-2017
</metadata>
<g transform="translate(0.000000,512.000000) scale(0.100000,-0.100000)"
fill="#000000" stroke="none">
<path d="M2260 4300 c-19 -19 -20 -33 -20 -260 0 -227 1 -241 20 -260 13 -13
33 -20 60 -20 27 0 47 7 60 20 19 19 20 33 20 260 0 227 -1 241 -20 260 -13
13 -33 20 -60 20 -27 0 -47 -7 -60 -20z"/>
<path d="M1132 3827 c-15 -16 -22 -36 -22 -62 0 -37 8 -47 158 -197 125 -125
163 -158 184 -158 60 0 98 38 98 98 0 21 -33 59 -158 184 -152 152 -159 158
-198 158 -29 0 -46 -6 -62 -23z"/>
<path d="M3258 3692 c-148 -148 -158 -160 -158 -195 0 -70 64 -106 128 -73 15
8 91 79 170 159 128 130 142 148 142 180 0 53 -32 87 -83 87 -40 0 -46 -5
-199 -158z"/>
<path d="M2190 3670 c-417 -58 -770 -371 -882 -780 -20 -75 -23 -107 -22 -265
0 -166 2 -187 27 -268 55 -177 129 -307 252 -436 158 -166 339 -269 555 -313
79 -17 120 -19 245 -15 198 7 246 22 261 83 9 36 -3 72 -32 90 -23 15 -35 16
-124 4 -199 -26 -385 1 -544 81 -103 51 -158 93 -243 183 -116 121 -194 276
-223 442 -16 90 -8 306 15 389 25 91 97 233 159 312 181 232 488 358 783 323
308 -37 557 -212 688 -484 69 -144 80 -194 80 -391 l0 -170 -36 -102 c-22 -59
-35 -112 -32 -126 8 -39 39 -62 84 -62 48 0 68 20 97 95 49 126 57 176 57 365
0 157 -3 191 -23 265 -121 444 -519 765 -970 784 -59 3 -136 1 -172 -4z"/>
<path d="M660 2700 c-13 -13 -20 -33 -20 -60 0 -27 7 -47 20 -60 19 -19 33
-20 260 -20 227 0 241 1 260 20 13 13 20 33 20 60 0 27 -7 47 -20 60 -19 19
-33 20 -260 20 -227 0 -241 -1 -260 -20z"/>
<path d="M3460 2700 c-13 -13 -20 -33 -20 -60 0 -27 7 -47 20 -60 19 -19 33
-20 260 -20 227 0 241 1 260 20 13 13 20 33 20 60 0 27 -7 47 -20 60 -19 19
-33 20 -260 20 -227 0 -241 -1 -260 -20z"/>
<path d="M3725 2075 c-14 -13 -25 -36 -25 -50 0 -46 271 -1109 287 -1127 22
-25 97 -24 121 0 13 13 61 186 157 570 125 502 136 555 125 582 -15 36 -37 50
-79 50 -65 0 -71 -14 -166 -400 -49 -195 -90 -359 -93 -365 -3 -5 -47 157 -98
360 -101 402 -102 405 -171 405 -23 0 -42 -8 -58 -25z"/>
<path d="M2820 2060 c-20 -20 -21 -30 -18 -453 l3 -432 27 -58 c35 -75 125
-165 203 -203 55 -26 69 -29 165 -29 93 0 111 3 163 27 75 35 156 113 198 191
l34 62 3 437 c3 429 2 438 -18 458 -24 24 -86 27 -116 6 -18 -14 -19 -33 -24
-428 -5 -368 -7 -417 -23 -453 -40 -89 -112 -134 -215 -135 -72 0 -114 15
-164 59 -71 62 -72 67 -78 529 -5 395 -6 414 -24 428 -30 21 -92 18 -116 -6z"/>
<path d="M1268 1702 c-153 -153 -158 -159 -158 -199 0 -51 34 -83 87 -83 32 0
50 14 180 143 80 78 151 154 159 169 33 64 -3 128 -73 128 -35 0 -47 -10 -195
-158z"/>
<path d="M2260 1500 c-19 -19 -20 -33 -20 -260 0 -227 1 -241 20 -260 13 -13
33 -20 60 -20 27 0 47 7 60 20 19 19 20 33 20 260 0 227 -1 241 -20 260 -13
13 -33 20 -60 20 -27 0 -47 -7 -60 -20z"/>
</g>
</svg>
