<?xml version="1.0" standalone="no"?>
<!DOCTYPE svg PUBLIC "-//W3C//DTD SVG 20010904//EN"
 "http://www.w3.org/TR/2001/REC-SVG-20010904/DTD/svg10.dtd">
<svg version="1.0" xmlns="http://www.w3.org/2000/svg"
 width="512.000000pt" height="512.000000pt" viewBox="0 0 512.000000 512.000000"
 preserveAspectRatio="xMidYMid meet">
<metadata>
Created by potrace 1.15, written by Peter Selinger 2001-2017
</metadata>
<g transform="translate(0.000000,512.000000) scale(0.100000,-0.100000)"
fill="#000000" stroke="none">
<path d="M285 4303 c-12 -2 -34 -14 -50 -27 l-30 -24 -3 -1510 -2 -1510 -76
-4 c-69 -3 -79 -6 -100 -31 l-24 -28 0 -299 0 -299 24 -28 24 -28 2512 0 2512
0 24 28 24 28 0 299 0 299 -24 28 c-21 25 -31 28 -100 31 l-76 4 0 1492 c0
1399 -1 1493 -18 1526 -11 24 -28 39 -52 47 -27 9 -567 12 -2290 11 -1240 0
-2264 -3 -2275 -5z m4425 -1643 l0 -1430 -1230 0 -1229 0 40 73 c80 145 79
119 14 235 l-57 102 -564 0 -564 0 0 -205 0 -205 -355 0 -355 0 0 1430 0 1430
2150 0 2150 0 0 -1430z m200 -1790 l0 -150 -2350 0 -2350 0 0 150 0 150 2350
0 2350 0 0 -150z"/>
<path d="M3954 3581 c-11 -5 -319 -223 -685 -483 -365 -261 -673 -481 -685
-488 -19 -12 -41 4 -291 212 -148 124 -280 231 -294 238 -28 16 -82 14 -114
-3 -47 -25 -823 -613 -841 -637 -12 -16 -19 -41 -19 -68 0 -37 5 -48 34 -74
29 -26 40 -30 76 -26 36 5 93 44 424 292 l382 287 42 -34 c23 -19 146 -121
272 -227 127 -105 245 -199 263 -208 30 -15 37 -15 75 -1 23 8 365 247 761
529 772 552 756 539 742 615 -4 17 -16 41 -29 53 -25 24 -83 35 -113 23z"/>
</g>
</svg>
