<?xml version="1.0" standalone="no"?>
<!DOCTYPE svg PUBLIC "-//W3C//DTD SVG 20010904//EN"
 "http://www.w3.org/TR/2001/REC-SVG-20010904/DTD/svg10.dtd">
<svg version="1.0" xmlns="http://www.w3.org/2000/svg"
 width="2048.000000pt" height="452.000000pt" viewBox="0 0 2048.000000 452.000000"
 preserveAspectRatio="xMidYMid meet">
<metadata>
Created by potrace 1.15, written by Peter Selinger 2001-2017
</metadata>
<g transform="translate(0.000000,452.000000) scale(0.100000,-0.100000)"
fill="#000000" stroke="none">
<path d="M3188 4504 c-37 -19 -58 -63 -58 -118 0 -51 -24 -12 434 -705 125
-189 226 -344 224 -345 -23 -14 -100 -76 -165 -133 -45 -40 -84 -73 -87 -73
-6 0 -205 165 -1296 1071 -379 315 -347 293 -411 287 -44 -5 -58 -11 -85 -41
-43 -46 -52 -94 -28 -144 19 -39 67 -80 1192 -1013 249 -206 451 -377 450
-380 -2 -3 -34 -58 -73 -122 l-70 -117 -110 58 c-60 32 -168 89 -240 126 -71
37 -166 87 -210 110 -44 23 -177 93 -295 155 -118 62 -251 132 -295 155 -102
54 -627 330 -810 425 -77 40 -214 112 -305 160 -91 48 -217 114 -280 147 -63
34 -198 105 -300 159 -173 92 -189 99 -243 99 -55 0 -61 -2 -93 -37 -30 -33
-34 -44 -34 -92 0 -87 5 -91 296 -242 82 -43 198 -104 257 -136 59 -32 109
-58 111 -58 2 0 107 -54 232 -121 126 -67 308 -162 404 -211 96 -50 198 -103
225 -118 64 -35 187 -100 460 -242 217 -114 534 -280 690 -363 44 -23 160 -84
258 -134 97 -51 177 -94 177 -95 0 -2 -13 -54 -29 -115 -16 -62 -33 -137 -37
-167 -5 -44 -9 -54 -23 -50 -9 3 -164 42 -346 86 -181 44 -539 132 -795 195
-256 63 -557 137 -670 164 -113 27 -335 82 -495 121 -311 76 -332 78 -384 34
-72 -60 -61 -178 20 -219 23 -13 332 -91 829 -211 58 -14 321 -79 585 -144
510 -125 642 -158 1015 -249 l235 -57 12 -114 c6 -63 17 -142 22 -174 6 -33 9
-62 6 -64 -4 -4 -155 -15 -345 -26 -52 -3 -165 -10 -250 -16 -85 -6 -391 -26
-680 -45 -289 -19 -537 -38 -551 -41 -57 -11 -103 -97 -88 -163 5 -22 22 -49
45 -70 l37 -34 136 7 c75 4 226 13 336 21 110 8 310 21 445 30 135 8 413 27
619 40 206 14 378 22 382 18 4 -5 22 -45 42 -89 100 -234 290 -486 498 -659
245 -204 563 -354 863 -405 148 -25 481 -28 621 -5 300 49 597 179 840 370 96
75 225 198 225 214 0 8 -54 11 -191 11 l-191 0 -61 -46 c-149 -112 -371 -215
-542 -252 -27 -6 -70 -16 -95 -23 -25 -6 -131 -13 -236 -16 -167 -5 -206 -3
-314 17 -318 56 -586 193 -823 419 -191 183 -320 386 -402 635 -110 331 -110
662 1 994 154 464 540 848 1002 997 266 86 585 98 858 34 208 -49 413 -148
589 -283 l85 -66 185 0 c102 0 185 4 185 8 0 16 -234 237 -310 293 -328 243
-690 362 -1100 363 -287 0 -515 -48 -766 -164 l-81 -37 -333 504 c-235 355
-341 508 -361 518 -36 19 -106 18 -141 -1z"/>
<path d="M6380 2809 c-103 -20 -180 -117 -180 -228 0 -102 59 -161 161 -161
103 0 165 35 204 114 34 68 35 158 2 206 -40 60 -105 84 -187 69z"/>
<path d="M9192 2809 c-112 -21 -182 -110 -182 -228 0 -104 59 -161 166 -161
101 0 167 40 204 122 22 48 26 131 9 175 -15 41 -57 81 -93 88 -17 4 -38 8
-46 10 -8 1 -34 -1 -58 -6z"/>
<path d="M5019 2676 c-2 -2 -67 -6 -144 -10 -156 -8 -261 -19 -271 -29 -6 -5
-108 -577 -257 -1432 -23 -129 -32 -202 -25 -206 13 -9 249 -27 428 -35 363
-14 586 59 780 255 189 192 280 439 281 764 0 197 -23 302 -92 418 -83 143
-219 231 -404 264 -77 13 -285 21 -296 11z m198 -351 c155 -46 212 -172 192
-427 -16 -219 -76 -377 -183 -484 -84 -84 -142 -106 -301 -112 -66 -2 -134 0
-151 4 l-30 9 88 500 c49 275 90 506 93 513 7 18 227 16 292 -3z"/>
<path d="M8335 2598 c-102 -10 -237 -38 -251 -52 -7 -6 -19 -56 -29 -111 -27
-160 -17 -145 -95 -145 -38 0 -71 -3 -74 -8 -2 -4 -14 -61 -25 -127 -12 -66
-24 -132 -27 -147 l-6 -28 71 0 c79 0 77 3 61 -81 -93 -488 -108 -641 -70
-740 64 -172 276 -238 557 -174 108 25 104 18 105 183 0 78 -1 145 -4 147 -3
3 -24 -1 -47 -10 -23 -8 -71 -18 -106 -21 -120 -12 -175 14 -175 84 0 21 23
165 50 320 28 155 50 285 50 287 0 3 71 5 159 5 l158 0 22 73 c26 87 51 218
45 229 -3 4 -77 8 -165 8 -110 0 -159 3 -159 11 0 6 12 74 26 151 14 77 22
144 17 147 -4 4 -44 4 -88 -1z"/>
<path d="M7180 2294 c-304 -65 -491 -341 -515 -763 -18 -305 116 -500 381
-556 121 -26 287 -15 422 27 l65 20 -5 155 c-3 85 -10 159 -16 165 -6 6 -20 5
-40 -6 -16 -8 -69 -23 -116 -32 -72 -14 -100 -15 -156 -7 -142 22 -184 96
-160 285 27 217 86 336 188 375 66 25 214 23 302 -6 49 -15 66 -17 72 -8 17
27 81 241 82 274 1 32 -2 37 -35 48 -117 42 -346 56 -469 29z"/>
<path d="M10005 2295 c-228 -50 -383 -193 -468 -432 -64 -176 -82 -435 -40
-568 65 -207 223 -318 473 -332 344 -20 593 169 685 521 118 446 -6 740 -343
811 -83 18 -227 18 -307 0z m203 -290 c36 -7 80 -49 100 -94 22 -52 18 -204
-9 -326 -53 -246 -118 -325 -265 -325 -152 0 -206 89 -183 303 13 120 52 269
88 332 15 27 46 63 69 79 59 42 105 49 200 31z"/>
<path d="M11572 2294 c-69 -18 -107 -38 -164 -85 -26 -22 -49 -39 -51 -39 -3
0 -1 17 4 38 5 20 9 48 9 61 l0 24 -162 -7 c-109 -4 -166 -10 -174 -19 -6 -6
-21 -70 -33 -142 -13 -71 -29 -164 -36 -205 -8 -41 -30 -169 -50 -285 -20
-115 -54 -307 -75 -425 -20 -118 -36 -218 -33 -222 7 -12 331 -10 338 2 3 6
22 99 40 208 19 108 50 289 70 402 19 113 40 236 47 274 l11 68 51 24 c117 54
246 56 298 4 31 -32 35 -61 18 -151 -37 -199 -140 -800 -140 -818 0 -21 3 -21
165 -21 162 0 166 0 175 23 5 12 25 114 44 227 20 113 56 322 81 464 49 281
53 336 30 413 -30 100 -93 160 -201 188 -72 19 -191 18 -262 -1z"/>
<path d="M12590 2299 c-129 -21 -148 -28 -156 -61 -8 -37 -10 -276 -2 -283 3
-3 41 5 84 17 104 30 288 32 382 4 34 -10 62 -24 61 -30 0 -6 -8 -53 -17 -105
l-18 -94 -44 -3 c-25 -2 -103 -5 -175 -8 -214 -10 -350 -51 -432 -133 -75 -75
-119 -207 -110 -334 6 -98 36 -166 96 -222 68 -64 129 -82 271 -81 136 1 193
18 292 91 34 25 64 41 66 35 22 -67 106 -121 200 -129 122 -11 207 31 248 122
25 58 57 206 46 217 -4 4 -45 8 -91 10 -65 2 -86 7 -94 20 -8 11 -4 51 12 140
108 604 121 683 108 694 -49 46 -207 104 -351 129 -95 16 -286 18 -376 4z
m290 -796 c0 -13 -31 -187 -36 -204 -7 -25 -95 -59 -168 -66 -134 -12 -188 43
-155 159 15 56 48 88 104 103 53 14 255 20 255 8z"/>
<path d="M14277 2290 c-58 -22 -107 -58 -164 -120 -51 -54 -51 -51 -18 98 5
22 4 22 -87 21 -139 -1 -248 -13 -257 -28 -5 -7 -16 -56 -25 -109 -9 -54 -25
-149 -36 -212 -12 -63 -29 -164 -40 -225 -35 -204 -90 -519 -108 -623 -10 -56
-16 -104 -14 -107 10 -10 331 -5 337 5 6 10 40 196 116 640 23 138 48 252 55
261 28 32 132 54 251 54 l111 -1 26 86 c14 47 35 125 45 173 l19 88 -25 10
c-40 15 -134 10 -186 -11z"/>
<path d="M16735 2294 c-251 -56 -412 -239 -486 -555 -31 -129 -33 -367 -5
-449 52 -154 136 -240 285 -294 131 -47 334 -45 496 5 l65 20 -1 82 c0 82 -13
234 -20 241 -2 3 -38 -7 -79 -22 -100 -34 -244 -37 -305 -7 -80 40 -106 122
-85 275 22 168 62 274 124 328 40 35 119 62 182 62 48 0 175 -23 216 -39 25
-9 29 -8 42 17 15 29 71 207 81 259 6 29 4 34 -21 44 -112 42 -369 60 -489 33z"/>
<path d="M17815 2294 c-188 -40 -343 -165 -426 -344 -112 -239 -132 -567 -45
-738 86 -170 282 -263 526 -249 345 19 570 253 629 654 16 105 14 269 -4 338
-35 132 -124 244 -238 298 -115 54 -297 71 -442 41z m237 -300 c69 -35 93
-106 84 -249 -12 -199 -68 -368 -144 -437 -46 -42 -86 -52 -172 -46 -71 5
-106 27 -135 84 -40 79 -18 330 44 495 24 63 81 135 120 151 69 28 149 29 203
2z"/>
<path d="M19372 2294 c-51 -13 -136 -57 -147 -74 -3 -5 -19 -19 -36 -31 l-31
-22 7 44 c3 24 9 52 11 62 5 15 -4 17 -98 16 -111 0 -233 -11 -244 -21 -5 -6
-42 -202 -128 -698 -14 -80 -41 -235 -61 -346 -19 -110 -35 -210 -35 -222 0
-22 2 -22 165 -22 186 0 177 -4 190 85 7 54 142 827 150 861 3 12 23 29 52 42
109 50 210 53 252 8 29 -31 29 -77 -4 -261 -14 -82 -33 -188 -41 -235 -66
-377 -84 -482 -84 -491 0 -6 64 -8 172 -7 l173 3 32 185 c17 102 53 309 79
460 26 151 51 285 55 298 24 64 223 103 286 56 56 -42 59 -17 -72 -744 -18
-102 -35 -201 -37 -220 l-3 -35 164 -3 c91 -1 168 1 172 5 6 7 70 349 124 668
8 44 21 120 29 169 9 49 16 132 16 185 0 85 -3 104 -26 149 -29 58 -65 90
-140 124 -41 19 -66 23 -159 23 -148 0 -217 -26 -357 -135 l-27 -21 -19 44
c-35 79 -119 117 -251 116 -42 0 -100 -7 -129 -15z"/>
<path d="M6165 2278 c-9 -29 -215 -1216 -218 -1253 l-2 -40 170 0 170 0 7 50
c15 89 188 1067 204 1148 9 43 13 85 10 93 -7 19 -334 21 -341 2z"/>
<path d="M8977 2283 c-2 -5 -7 -30 -11 -58 -4 -27 -13 -84 -21 -125 -8 -41
-30 -165 -49 -275 -19 -110 -60 -341 -91 -513 -31 -172 -53 -317 -50 -322 7
-12 314 -14 331 -2 10 7 57 260 176 947 27 160 51 304 51 320 l2 30 -167 3
c-91 1 -169 -1 -171 -5z"/>
<path d="M14675 2281 l-60 -6 2 -133 c3 -249 69 -682 154 -1026 l30 -118 -45
-72 c-82 -131 -115 -147 -270 -133 -50 5 -102 10 -114 10 -20 2 -27 -7 -43
-48 -30 -78 -71 -235 -65 -250 19 -50 315 -68 430 -26 85 31 145 72 225 156
126 133 136 152 655 1179 165 325 224 451 215 457 -17 10 -180 21 -263 17
l-69 -3 -126 -266 c-69 -146 -157 -330 -195 -410 -37 -79 -75 -163 -83 -187
-8 -24 -17 -42 -18 -40 -2 2 -25 207 -51 456 l-48 452 -101 -2 c-55 -1 -127
-4 -160 -7z"/>
<path d="M15819 1335 c-63 -20 -116 -76 -135 -143 -46 -157 61 -263 223 -223
98 25 155 102 157 211 1 65 -29 121 -76 146 -42 22 -116 26 -169 9z"/>
</g>
</svg>
