<?xml version="1.0" standalone="no"?>
<!DOCTYPE svg PUBLIC "-//W3C//DTD SVG 20010904//EN"
 "http://www.w3.org/TR/2001/REC-SVG-20010904/DTD/svg10.dtd">
<svg version="1.0" xmlns="http://www.w3.org/2000/svg"
 width="225.000000pt" height="225.000000pt" viewBox="0 0 225.000000 225.000000"
 preserveAspectRatio="xMidYMid meet">
<metadata>
Created by potrace 1.15, written by Peter Selinger 2001-2017
</metadata>
<g transform="translate(0.000000,225.000000) scale(0.100000,-0.100000)"
fill="#000000" stroke="none">
<path d="M1053 2149 c-18 -5 -164 -107 -325 -226 -161 -119 -376 -277 -476
-351 -101 -75 -194 -150 -207 -166 -45 -60 -46 -79 -43 -673 l3 -561 25 -27
c54 -58 -8 -55 1097 -55 998 0 1019 0 1051 20 18 11 41 34 52 52 19 32 20 52
20 593 l0 560 -24 50 c-28 61 -28 61 -246 220 -96 71 -177 130 -179 132 -3 2
35 43 82 92 56 57 87 96 87 110 0 33 -106 141 -139 141 -19 0 -51 -25 -126
-99 l-100 -100 -188 139 c-217 161 -261 179 -364 149z m131 -104 c24 -13 314
-223 341 -247 6 -5 -69 -87 -195 -213 l-204 -205 -112 110 c-61 61 -117 110
-123 110 -7 0 -42 -28 -77 -62 -45 -43 -64 -68 -64 -86 0 -20 39 -65 163 -190
174 -176 201 -196 232 -180 11 6 146 136 300 289 l281 280 199 -149 c175 -129
225 -175 225 -207 0 -5 -961 -582 -984 -591 -10 -4 -204 100 -533 286 -285
161 -522 296 -526 300 -27 25 39 81 477 404 250 185 467 343 482 351 37 19 81
19 118 0z m662 -116 c7 -12 -702 -729 -721 -729 -6 0 -66 56 -135 125 -97 98
-122 127 -112 137 9 9 35 -11 120 -95 60 -59 117 -107 128 -107 11 0 155 136
359 340 187 187 343 340 347 340 4 0 10 -5 14 -11z m-1159 -1516 l-372 -223
-96 0 c-60 0 -99 4 -107 12 -9 9 -12 132 -12 494 l0 482 479 -271 480 -271
-372 -223z m1463 279 c0 -358 -3 -481 -12 -490 -9 -9 -205 -12 -821 -12 l-809
0 814 489 c447 269 816 490 821 490 4 1 7 -214 7 -477z"/>
</g>
</svg>
