<?xml version="1.0" standalone="no"?>
<!DOCTYPE svg PUBLIC "-//W3C//DTD SVG 20010904//EN"
 "http://www.w3.org/TR/2001/REC-SVG-20010904/DTD/svg10.dtd">
<svg version="1.0" xmlns="http://www.w3.org/2000/svg"
 width="225.000000pt" height="225.000000pt" viewBox="0 0 225.000000 225.000000"
 preserveAspectRatio="xMidYMid meet">
<metadata>
Created by potrace 1.15, written by Peter Selinger 2001-2017
</metadata>
<g transform="translate(0.000000,225.000000) scale(0.100000,-0.100000)"
fill="#000000" stroke="none">
<path d="M115 1811 c-44 -26 -83 -76 -90 -114 -3 -18 -5 -287 -3 -598 l3 -566
29 -37 c15 -21 42 -46 60 -57 30 -18 64 -19 1011 -19 947 0 981 1 1011 19 18
11 45 36 60 57 l29 37 3 579 c3 627 4 605 -52 666 -49 54 1 52 -1053 52 -935
0 -979 -1 -1008 -19z m1463 -438 c-233 -203 -431 -374 -439 -380 -14 -11 -79
42 -453 367 l-437 380 876 0 876 0 -423 -367z m-951 -85 c268 -232 492 -421
498 -421 6 0 230 190 499 422 370 321 491 420 499 412 9 -9 12 -162 12 -577
l0 -566 -28 -24 -28 -24 -954 0 -954 0 -28 24 -28 24 -3 550 c-2 508 1 602 23
602 3 0 225 -190 492 -422z"/>
</g>
</svg>
