<?xml version="1.0" standalone="no"?>
<!DOCTYPE svg PUBLIC "-//W3C//DTD SVG 20010904//EN"
 "http://www.w3.org/TR/2001/REC-SVG-20010904/DTD/svg10.dtd">
<svg version="1.0" xmlns="http://www.w3.org/2000/svg"
 width="267.000000pt" height="189.000000pt" viewBox="0 0 267.000000 189.000000"
 preserveAspectRatio="xMidYMid meet">
<metadata>
Created by potrace 1.15, written by Peter Selinger 2001-2017
</metadata>
<g transform="translate(0.000000,189.000000) scale(0.100000,-0.100000)"
fill="#000000" stroke="none">
<path d="M719 1178 c-27 -47 -44 -87 -53 -130 l-6 -28 -182 0 c-143 0 -193 4
-235 17 -39 12 -59 14 -71 7 -37 -24 -36 -125 0 -148 12 -7 29 -7 60 3 64 20
138 24 296 16 l142 -7 0 -27 c0 -28 37 -110 68 -148 l17 -22 35 29 35 29 -26
28 c-32 34 -49 65 -49 90 0 17 32 18 792 15 553 -2 813 0 858 8 66 12 160 47
160 60 0 13 -94 48 -160 60 -45 7 -298 10 -835 6 -423 -2 -780 -5 -793 -6 -13
-1 -25 0 -27 1 -11 12 12 65 42 96 l34 36 -28 29 c-15 15 -32 28 -37 28 -6 0
-23 -19 -37 -42z m65 4 c15 -18 15 -20 -5 -38 -44 -40 -65 -124 -38 -151 9 -9
9 -20 -1 -43 -18 -43 -6 -96 31 -142 30 -38 30 -40 13 -53 -29 -22 -37 -14
-62 56 -18 48 -23 78 -19 119 2 30 1 65 -4 76 -9 25 3 83 30 148 22 51 30 55
55 28z m1691 -184 c38 -16 -2 -17 -766 -17 -802 -1 -807 -1 -812 19 -5 21 -5
21 766 18 696 -3 776 -5 812 -20z m0 -56 c-36 -15 -125 -17 -805 -22 -421 -3
-768 -4 -772 -2 -3 1 -4 11 -1 22 5 20 14 20 812 19 759 0 804 -1 766 -17z"/>
</g>
</svg>
