<?xml version="1.0" standalone="no"?>
<!DOCTYPE svg PUBLIC "-//W3C//DTD SVG 20010904//EN"
 "http://www.w3.org/TR/2001/REC-SVG-20010904/DTD/svg10.dtd">
<svg version="1.0" xmlns="http://www.w3.org/2000/svg"
 width="2000.000000pt" height="2000.000000pt" viewBox="0 0 2000.000000 2000.000000"
 preserveAspectRatio="xMidYMid meet">
<metadata>
Created by potrace 1.15, written by Peter Selinger 2001-2017
</metadata>
<g transform="translate(0.000000,2000.000000) scale(0.100000,-0.100000)"
fill="#000000" stroke="none">
<path d="M9600 19944 c-554 -30 -971 -76 -1416 -158 -2263 -418 -4322 -1619
-5805 -3386 -1289 -1536 -2080 -3406 -2278 -5385 -39 -389 -46 -542 -46 -1020
0 -474 6 -599 46 -1004 119 -1222 485 -2457 1051 -3551 414 -800 942 -1550
1557 -2215 129 -140 479 -484 626 -615 1631 -1465 3643 -2338 5815 -2525 605
-51 1298 -44 1915 21 2674 281 5132 1652 6797 3792 1005 1292 1677 2820 1948
4427 465 2762 -237 5573 -1939 7765 -477 614 -1039 1186 -1641 1671 -721 581
-1537 1066 -2400 1427 -983 411 -1987 649 -3110 738 -182 14 -959 27 -1120 18z
m3935 -2765 c595 -73 1063 -523 1161 -1117 21 -127 14 -369 -15 -492 -106
-461 -436 -825 -881 -974 -256 -86 -560 -89 -815 -9 -338 106 -632 356 -788
668 -58 116 -90 207 -118 336 -30 135 -33 377 -6 511 104 516 480 916 983
1044 167 42 319 53 479 33z m-3143 -1420 c200 -14 499 -51 668 -84 120 -23
470 -104 478 -110 2 -2 14 -50 27 -107 158 -700 685 -1239 1375 -1407 173 -43
300 -55 512 -48 199 6 327 27 506 85 l92 30 129 -137 c834 -884 1349 -1943
1530 -3141 24 -158 55 -460 48 -466 -5 -5 -1888 -36 -1893 -31 -1 1 -10 61
-19 132 -178 1409 -1092 2596 -2405 3123 -940 377 -2004 368 -2937 -25 -78
-32 -137 -52 -142 -47 -12 12 -922 1647 -919 1648 2 1 58 28 126 60 617 288
1335 474 2032 525 170 12 618 13 792 0z m-3103 -1771 l484 -812 -25 -20 c-14
-12 -78 -62 -144 -113 -519 -400 -955 -983 -1204 -1608 -186 -467 -271 -919
-271 -1435 0 -516 85 -968 271 -1435 248 -624 687 -1210 1204 -1608 66 -51
130 -101 144 -113 l25 -20 -483 -810 c-266 -445 -485 -811 -487 -813 -8 -11
-317 216 -490 360 -890 740 -1536 1726 -1858 2837 l-45 152 116 113 c338 327
524 722 566 1200 9 106 9 168 0 275 -42 477 -228 872 -566 1199 l-116 113 45
152 c335 1157 1013 2165 1963 2922 123 98 369 276 381 276 3 -1 224 -366 490
-812z m-3852 -2674 c549 -81 992 -505 1105 -1059 30 -143 29 -371 -1 -513
-119 -563 -550 -971 -1116 -1059 -119 -18 -341 -12 -450 11 -544 119 -956 544
-1050 1080 -20 115 -20 337 0 452 124 712 795 1195 1512 1088z m11402 -1669
c502 -7 915 -16 918 -18 2 -3 0 -58 -7 -124 -125 -1347 -675 -2552 -1608
-3524 l-92 -97 -103 33 c-210 67 -306 80 -567 80 -205 0 -249 -3 -349 -23
-737 -149 -1301 -699 -1466 -1430 -13 -57 -25 -105 -27 -107 -8 -6 -358 -87
-478 -110 -527 -101 -1154 -123 -1710 -59 -604 68 -1239 247 -1785 502 -66 31
-121 57 -123 58 -3 2 907 1635 919 1648 5 5 30 0 61 -13 553 -235 1022 -333
1588 -333 740 1 1423 198 2050 590 918 575 1551 1508 1749 2577 18 95 51 327
51 356 0 5 15 9 33 9 17 0 443 -7 946 -15z m-1234 -4191 c530 -91 954 -494
1076 -1024 29 -123 36 -365 15 -492 -92 -561 -513 -993 -1074 -1105 -120 -24
-356 -23 -477 1 -284 56 -500 170 -700 371 -119 119 -191 218 -260 360 -94
193 -130 351 -130 580 1 231 39 394 142 600 184 367 548 637 958 709 110 20
339 20 450 0z"/>
</g>
</svg>
