<?xml version="1.0" standalone="no"?>
<!DOCTYPE svg PUBLIC "-//W3C//DTD SVG 20010904//EN"
 "http://www.w3.org/TR/2001/REC-SVG-20010904/DTD/svg10.dtd">
<svg version="1.0" xmlns="http://www.w3.org/2000/svg"
 width="225.000000pt" height="225.000000pt" viewBox="0 0 225.000000 225.000000"
 preserveAspectRatio="xMidYMid meet">
<metadata>
Created by potrace 1.15, written by Peter Selinger 2001-2017
</metadata>
<g transform="translate(0.000000,225.000000) scale(0.100000,-0.100000)"
fill="#000000" stroke="none">
<path d="M929 2155 c-318 -60 -594 -270 -739 -560 -54 -107 -104 -266 -98
-312 3 -27 5 -28 63 -31 65 -3 85 10 85 54 0 41 56 191 99 266 236 413 750
572 1176 363 175 -85 324 -234 409 -410 65 -132 65 -130 14 -141 -25 -5 -44
-15 -46 -24 -1 -8 43 -60 98 -115 87 -87 102 -98 114 -85 25 27 127 224 123
240 -2 11 -15 15 -53 13 l-51 -2 -17 57 c-28 89 -104 226 -176 315 -141 176
-332 299 -558 358 -102 28 -334 35 -443 14z"/>
<path d="M1243 1248 l-323 -323 -118 118 -117 117 -68 -68 -67 -67 188 -188
187 -187 390 390 390 390 -70 70 -70 70 -322 -322z"/>
<path d="M97 1008 c-101 -187 -101 -192 -22 -186 l47 3 22 -60 c207 -568 867
-841 1413 -585 210 98 392 272 493 470 70 138 119 332 89 351 -21 13 -105 11
-117 -3 -5 -7 -19 -49 -30 -94 -72 -287 -292 -529 -572 -626 -134 -47 -318
-62 -456 -37 -306 54 -564 266 -680 557 -19 48 -12 62 32 62 12 0 27 7 34 16
12 13 0 29 -86 115 -54 54 -104 99 -111 99 -6 0 -31 -37 -56 -82z"/>
</g>
</svg>
