<?xml version="1.0" standalone="no"?>
<!DOCTYPE svg PUBLIC "-//W3C//DTD SVG 20010904//EN"
 "http://www.w3.org/TR/2001/REC-SVG-20010904/DTD/svg10.dtd">
<svg version="1.0" xmlns="http://www.w3.org/2000/svg"
 width="225.000000pt" height="225.000000pt" viewBox="0 0 225.000000 225.000000"
 preserveAspectRatio="xMidYMid meet">
<metadata>
Created by potrace 1.15, written by Peter Selinger 2001-2017
</metadata>
<g transform="translate(0.000000,225.000000) scale(0.100000,-0.100000)"
fill="#000000" stroke="none">
<path d="M958 2145 c-279 -47 -538 -213 -691 -443 -354 -530 -149 -1253 430
-1518 633 -290 1368 126 1454 823 38 305 -76 627 -301 852 -231 231 -571 340
-892 286z m407 -105 c339 -91 594 -356 682 -708 27 -106 24 -333 -5 -441 -91
-336 -347 -591 -683 -683 -72 -19 -107 -23 -239 -22 -179 1 -254 17 -396 83
-278 130 -477 392 -530 693 -23 131 -15 302 20 421 103 348 384 604 741 673
101 20 307 12 410 -16z"/>
<path d="M1090 1691 c-6 -13 -10 -190 -10 -508 l0 -488 -148 148 c-93 93 -155
147 -168 147 -26 0 -44 -18 -44 -45 0 -27 378 -405 405 -405 24 0 405 379 405
402 0 21 -27 48 -47 48 -9 0 -83 -66 -165 -147 l-148 -147 0 488 c0 317 -4
494 -10 507 -6 11 -21 19 -35 19 -14 0 -29 -8 -35 -19z"/>
</g>
</svg>
