<?xml version="1.0" standalone="no"?>
<!DOCTYPE svg PUBLIC "-//W3C//DTD SVG 20010904//EN"
 "http://www.w3.org/TR/2001/REC-SVG-20010904/DTD/svg10.dtd">
<svg version="1.0" xmlns="http://www.w3.org/2000/svg"
 width="324.000000pt" height="155.000000pt" viewBox="0 0 324.000000 155.000000"
 preserveAspectRatio="xMidYMid meet">
<metadata>
Created by potrace 1.15, written by Peter Selinger 2001-2017
</metadata>
<g transform="translate(0.000000,155.000000) scale(0.100000,-0.100000)"
fill="#000000" stroke="none">
<path d="M2953 1470 c-169 -160 -423 -250 -871 -306 -277 -34 -606 -28 -938
17 l-160 23 -86 -52 c-182 -110 -558 -419 -761 -624 -80 -82 -137 -167 -137
-205 0 -28 14 -37 30 -18 17 20 26 19 63 -9 31 -23 110 -66 122 -66 3 0 5 7 5
15 0 19 -2 19 45 -5 44 -22 65 -25 65 -10 0 6 28 -12 62 -40 102 -82 251 -150
330 -150 l28 0 -17 27 c-14 24 -11 22 23 -9 22 -21 43 -38 47 -38 4 0 7 20 7
44 l0 45 78 -39 c87 -44 175 -70 239 -70 l43 0 -19 38 -20 38 52 -17 c58 -21
207 -26 207 -8 0 6 -4 18 -9 27 -8 15 2 14 72 -9 45 -15 103 -30 130 -34 46
-6 47 -5 47 20 0 14 -7 41 -14 60 -15 34 -14 35 8 35 13 0 38 3 55 6 36 7 41
35 15 72 l-15 22 105 0 c119 0 127 6 82 65 l-25 32 172 7 c236 9 277 14 277
36 0 9 -9 29 -20 43 -11 14 -20 27 -20 30 0 2 33 7 73 11 72 7 183 29 193 39
10 10 -17 47 -53 71 l-36 25 29 6 c117 27 311 106 328 133 3 6 -16 16 -44 23
-27 7 -50 15 -50 19 0 3 41 19 91 35 49 17 91 34 92 40 1 5 -25 25 -58 44
l-60 35 129 65 c72 36 131 71 133 77 2 6 -29 21 -69 34 l-73 23 119 58 c66 31
145 65 175 75 31 10 60 21 65 25 13 11 -120 50 -191 56 l-62 6 20 38 c18 37
45 137 37 144 -1 2 -40 -32 -85 -75z m8 -74 c-74 -119 -282 -219 -592 -285
-267 -56 -458 -74 -789 -74 -235 0 -351 8 -540 39 -30 4 -51 -4 -150 -61 -182
-104 -326 -212 -610 -455 -91 -78 -178 -151 -194 -162 l-28 -21 12 23 c20 37
182 193 373 360 201 174 327 271 462 354 l92 56 74 -14 c172 -33 298 -41 604
-41 189 0 353 5 420 13 153 18 392 67 500 103 120 40 280 119 335 168 25 21
47 37 49 36 2 -2 -7 -20 -18 -39z m149 -84 c24 -9 22 -10 -30 -33 -30 -13
-109 -50 -175 -82 -220 -108 -385 -162 -657 -216 -246 -49 -548 -78 -548 -52
0 5 -11 23 -25 39 l-25 29 38 7 c20 3 65 6 100 6 34 0 128 7 208 15 430 45
733 134 904 265 54 41 56 42 120 37 36 -3 76 -10 90 -15z m-214 -213 c24 -6
44 -15 44 -18 0 -12 -186 -98 -282 -131 -216 -74 -515 -130 -803 -150 -225
-15 -224 -15 -236 18 -6 15 -20 37 -31 50 l-21 22 39 0 c145 -1 348 12 459 29
240 36 557 116 670 170 47 22 98 26 161 10z m-1691 -73 c66 -8 185 -18 265
-22 144 -6 144 -7 172 -36 15 -17 28 -33 28 -37 0 -9 -284 -36 -360 -35 -85 2
-156 14 -139 24 16 11 17 9 -68 74 -68 51 -76 61 -40 53 12 -3 76 -13 142 -21z
m-294 -62 c7 -8 30 -24 51 -35 31 -16 88 -83 88 -104 0 -12 -58 -3 -100 16
-50 22 -140 80 -140 91 0 8 61 46 76 47 6 1 17 -6 25 -15z m1854 -68 l50 -23
-100 -31 c-161 -50 -349 -89 -560 -117 -137 -18 -472 -34 -587 -27 -69 4 -79
7 -93 29 -9 14 -14 27 -11 31 3 3 124 9 269 13 144 4 312 14 372 23 148 22
372 69 470 100 101 31 128 31 190 2z m-1932 -19 c24 -18 57 -39 74 -46 20 -8
40 -30 58 -63 l27 -50 -33 7 c-64 14 -177 66 -215 100 l-39 35 30 25 c39 32
46 32 98 -8z m332 8 c54 -17 192 -22 296 -10 61 6 67 5 97 -20 18 -15 32 -33
32 -40 0 -29 -214 -38 -339 -15 -85 15 -183 55 -199 80 -11 19 -10 20 25 20
21 0 61 -7 88 -15z m-368 -129 c23 -11 35 -27 42 -53 6 -20 9 -39 6 -41 -9 -9
-115 30 -170 63 -86 52 -86 52 -41 90 l40 33 45 -38 c25 -21 60 -45 78 -54z
m435 20 c42 -9 102 -16 132 -16 53 0 57 -2 81 -37 37 -55 33 -63 -28 -63 -68
0 -170 30 -280 82 -87 42 -88 42 -66 59 19 14 27 15 53 4 17 -7 66 -20 108
-29z m-83 -72 c29 -13 56 -24 60 -24 19 0 79 -125 66 -138 -17 -17 -197 61
-295 127 l-45 31 43 0 c46 0 51 8 27 54 -8 15 -15 30 -15 32 0 3 24 -9 53 -26
28 -17 76 -42 106 -56z m-477 -10 c52 -26 71 -52 66 -89 l-3 -24 -80 32 c-44
18 -98 46 -119 62 l-39 29 37 32 37 32 27 -25 c15 -14 48 -36 74 -49z m1976
65 c57 -10 63 -13 48 -24 -36 -27 -242 -87 -383 -112 -136 -24 -171 -27 -433
-27 -205 -1 -306 3 -360 13 l-75 14 33 14 c17 7 32 17 32 22 0 4 118 11 263
14 279 6 469 26 667 71 128 29 128 29 208 15z m-1636 -142 c48 -30 110 -63
138 -73 46 -17 52 -22 70 -71 29 -79 27 -88 -16 -54 -13 10 -70 38 -126 62
-57 23 -125 55 -153 70 -56 32 -131 94 -101 85 10 -4 28 -4 39 0 16 5 18 12
13 47 l-7 42 28 -27 c15 -15 67 -51 115 -81z m-434 -1 c30 -16 62 -65 62 -96
0 -33 -104 11 -175 75 l-50 44 30 24 30 25 35 -28 c19 -15 50 -35 68 -44z
m791 4 c140 -48 209 -55 506 -54 194 0 298 5 368 16 107 17 137 14 197 -24
l35 -22 -55 -13 c-108 -25 -396 -37 -598 -24 -237 14 -439 47 -504 82 -18 10
-54 69 -42 69 4 0 45 -13 93 -30z m-430 -108 c56 -29 79 -47 92 -73 41 -82 39
-82 -103 -7 -132 68 -228 134 -180 121 20 -5 22 -2 22 36 l0 42 48 -40 c26
-22 81 -57 121 -79z m-411 1 c15 -6 66 -102 58 -110 -19 -19 -183 52 -247 107
l-34 30 43 40 43 41 62 -52 c34 -28 68 -54 75 -56z m324 -73 c49 -28 68 -45
86 -80 12 -24 22 -59 22 -78 l0 -34 -30 25 c-16 14 -74 49 -128 77 -54 28
-118 69 -143 90 -39 35 -41 39 -21 40 29 0 36 19 24 63 l-10 36 68 -52 c38
-28 97 -67 132 -87z m566 81 c69 -17 139 -28 312 -46 30 -3 142 -6 248 -7 180
0 195 -2 225 -22 18 -12 31 -26 30 -31 -4 -17 -119 -27 -308 -28 -184 -1 -274
8 -421 44 -89 22 -240 77 -211 78 10 1 17 9 17 22 0 15 4 19 16 15 8 -3 50
-15 92 -25z m-1078 -46 c52 -40 90 -97 90 -135 0 -24 -111 23 -189 81 l-45 32
40 33 c21 19 40 34 42 34 2 0 30 -20 62 -45z m1112 -59 c46 -13 128 -31 183
-40 55 -9 110 -19 122 -21 24 -6 83 -52 83 -66 0 -5 -30 -9 -68 -9 -223 0
-490 77 -506 147 -4 15 -9 36 -12 45 -4 15 3 14 55 -7 33 -14 98 -36 143 -49z
m-238 -38 c28 -22 40 -27 46 -18 6 9 13 9 31 -3 43 -28 155 -66 245 -82 73
-13 93 -21 111 -43 13 -15 23 -31 23 -36 0 -16 -145 3 -231 30 -112 35 -262
113 -326 170 -29 25 -53 50 -53 55 0 14 111 -38 154 -73z m-446 -42 c32 -15
47 -30 67 -69 37 -75 35 -79 -32 -56 -69 23 -149 68 -220 121 -57 44 -64 53
-32 43 11 -4 32 -4 46 0 22 5 25 10 19 35 l-5 30 57 -43 c32 -23 76 -51 100
-61z m-280 45 c49 -51 136 -115 210 -154 l72 -38 0 -46 c0 -45 0 -45 -22 -30
-13 9 -63 39 -113 68 -133 76 -172 110 -177 156 -3 21 -8 46 -12 56 -13 27 12
21 42 -12z m779 -115 c51 -25 132 -57 179 -71 48 -14 93 -30 99 -35 18 -15 50
-78 43 -85 -10 -11 -128 24 -219 64 -93 41 -258 137 -299 173 -14 13 -20 19
-12 14 17 -12 34 11 28 37 -3 13 7 9 42 -17 26 -18 89 -54 139 -80z m-795 -10
c25 -21 75 -55 109 -75 37 -21 71 -50 82 -68 l18 -32 -38 11 c-116 32 -298
160 -317 225 l-7 21 53 -21 c29 -12 74 -40 100 -61z m736 -73 c67 -36 132 -89
132 -106 0 -18 -120 2 -176 29 -31 15 -82 52 -114 83 -52 49 -59 61 -63 102
l-4 47 79 -59 c44 -32 110 -75 146 -96z m-274 48 c11 -12 26 -21 35 -21 23 0
94 -76 120 -128 l21 -42 -23 0 c-50 0 -196 57 -259 102 -31 22 -38 44 -10 33
9 -3 29 -9 45 -12 24 -5 27 -3 27 21 0 15 -7 43 -15 63 -8 19 -15 37 -15 40 0
7 53 -33 74 -56z"/>
</g>
</svg>
