<?xml version="1.0" standalone="no"?>
<!DOCTYPE svg PUBLIC "-//W3C//DTD SVG 20010904//EN"
 "http://www.w3.org/TR/2001/REC-SVG-20010904/DTD/svg10.dtd">
<svg version="1.0" xmlns="http://www.w3.org/2000/svg"
 width="324.000000pt" height="155.000000pt" viewBox="0 0 324.000000 155.000000"
 preserveAspectRatio="xMidYMid meet">
<metadata>
Created by potrace 1.15, written by Peter Selinger 2001-2017
</metadata>
<g transform="translate(0.000000,155.000000) scale(0.100000,-0.100000)"
fill="#000000" stroke="none">
<path d="M205 1510 c4 -25 17 -68 30 -96 l23 -51 -62 -6 c-70 -6 -203 -45
-190 -56 5 -4 34 -15 65 -25 30 -10 109 -44 175 -75 l119 -58 -73 -23 c-40
-13 -71 -28 -69 -34 2 -6 61 -41 133 -77 l129 -65 -60 -35 c-33 -19 -60 -38
-60 -43 0 -5 42 -23 93 -40 50 -17 92 -33 92 -36 0 -4 -23 -12 -50 -19 -28 -7
-47 -17 -44 -23 17 -27 211 -106 328 -133 l29 -6 -36 -25 c-36 -24 -63 -61
-53 -71 10 -10 121 -32 194 -39 39 -4 72 -9 72 -11 0 -3 -9 -16 -20 -30 -11
-14 -20 -34 -20 -43 0 -22 41 -27 277 -36 l172 -7 -25 -32 c-45 -59 -37 -65
82 -65 l105 0 -15 -22 c-26 -37 -21 -65 15 -72 17 -3 42 -6 55 -6 22 0 23 -1
8 -35 -7 -19 -14 -46 -14 -60 0 -25 1 -26 48 -20 26 4 84 19 129 34 70 23 80
24 72 9 -5 -9 -9 -21 -9 -27 0 -18 149 -13 207 8 l52 17 -20 -38 -19 -38 43 0
c64 0 152 26 240 70 l77 39 0 -45 c0 -24 3 -44 7 -44 4 0 25 17 47 38 34 31
37 33 23 10 l-17 -28 28 0 c79 0 228 68 330 150 34 28 62 46 62 40 0 -15 21
-12 65 10 47 24 45 24 45 5 0 -8 2 -15 5 -15 12 0 91 43 122 66 37 28 46 29
63 9 7 -8 16 -12 21 -9 17 10 9 49 -21 101 -79 137 -608 598 -868 755 l-86 52
-160 -23 c-496 -68 -967 -46 -1376 65 -188 51 -328 124 -437 227 l-86 82 8
-45z m258 -204 c126 -62 246 -100 422 -135 236 -47 340 -56 680 -56 306 0 432
8 604 41 l74 14 92 -56 c135 -83 261 -180 462 -354 191 -167 353 -323 373
-360 l12 -23 -28 21 c-16 11 -103 84 -194 162 -284 243 -428 351 -610 455 -99
57 -120 65 -150 61 -189 -31 -305 -39 -540 -39 -331 0 -522 18 -789 74 -308
66 -518 166 -590 283 -31 50 -26 50 34 1 31 -25 97 -65 148 -89z m-123 -17
c174 -131 475 -219 904 -264 80 -8 174 -15 208 -15 35 0 80 -3 100 -6 l38 -7
-25 -29 c-14 -16 -25 -34 -25 -39 0 -26 -302 3 -548 52 -272 54 -437 108 -657
216 -66 32 -144 69 -173 82 -30 12 -52 24 -50 26 9 9 85 23 128 24 39 1 54 -5
100 -40z m171 -203 c132 -58 423 -131 664 -167 111 -17 314 -30 459 -29 l39 0
-21 -22 c-11 -13 -25 -35 -31 -50 -12 -33 -11 -33 -236 -18 -288 20 -587 76
-803 150 -96 34 -282 119 -282 131 0 10 68 27 116 28 24 1 65 -9 95 -23z
m1689 -40 c0 -3 -28 -26 -62 -52 -86 -65 -85 -63 -69 -74 17 -10 -54 -22 -139
-24 -76 -1 -360 26 -360 35 0 4 12 20 28 37 27 29 29 29 167 36 134 6 395 34
404 42 6 5 31 5 31 0z m194 -87 c20 -12 36 -24 36 -27 0 -11 -90 -69 -140 -91
-42 -19 -100 -28 -100 -16 0 21 57 88 88 104 21 11 44 27 51 35 17 21 23 20
65 -5z m-1718 -69 c250 -74 498 -110 831 -119 145 -4 266 -10 269 -13 3 -4 -2
-17 -11 -31 -14 -22 -24 -25 -93 -29 -115 -7 -450 9 -587 27 -211 28 -399 67
-560 117 l-100 31 50 23 c64 30 81 30 201 -6z m1829 -5 l30 -25 -39 -35 c-38
-34 -151 -86 -215 -100 l-33 -7 26 49 c21 37 39 55 80 76 30 16 62 37 72 48
23 25 43 24 79 -6z m-317 -5 c-16 -25 -114 -65 -199 -80 -125 -23 -339 -14
-339 15 0 7 14 25 32 40 30 25 36 26 97 20 102 -11 241 -7 291 9 25 8 64 14
88 15 40 1 41 0 30 -19z m449 -103 c-9 -29 -226 -132 -242 -115 -3 2 0 21 6
41 7 28 19 42 47 56 20 11 55 35 77 54 l40 35 38 -30 c21 -17 36 -35 34 -41z
m-538 -37 c-111 -52 -206 -80 -278 -80 -59 0 -63 8 -26 63 24 35 28 37 81 37
60 0 190 24 239 44 25 11 34 10 54 -3 24 -15 24 -16 -70 -61z m136 14 c-24
-46 -20 -54 27 -54 l43 0 -54 -36 c-70 -47 -206 -111 -254 -120 -38 -6 -38 -6
-31 22 17 70 45 104 112 132 29 13 78 38 110 56 31 19 58 33 60 32 1 -2 -4
-16 -13 -32z m-1440 -10 c216 -46 392 -65 673 -71 144 -3 262 -10 262 -14 0
-5 15 -15 33 -22 l32 -14 -75 -14 c-54 -10 -155 -14 -360 -13 -262 0 -297 3
-433 27 -142 25 -347 85 -384 112 -15 11 -11 14 37 23 81 14 85 14 215 -14z
m1934 -27 c16 -20 -43 -63 -144 -104 l-80 -32 -3 24 c-5 37 14 63 66 89 26 13
58 35 72 48 24 23 26 24 51 7 14 -10 31 -24 38 -32z m-365 -36 c-5 -33 -3 -40
13 -45 11 -4 29 -4 39 0 30 9 -45 -53 -101 -85 -27 -15 -96 -47 -153 -70 -56
-24 -113 -52 -126 -62 -43 -34 -45 -25 -16 53 18 50 23 54 77 75 61 24 228
128 252 156 20 25 22 21 15 -22z m456 -42 c0 -14 -95 -89 -137 -109 -46 -22
-83 -26 -83 -10 0 33 32 81 67 99 21 11 51 31 68 44 l29 24 28 -20 c15 -11 28
-24 28 -28z m-865 -19 c-18 -36 -32 -43 -115 -65 -193 -51 -519 -74 -787 -56
-98 6 -203 17 -233 24 l-55 13 35 22 c60 38 90 41 197 24 70 -11 174 -16 368
-16 296 -1 369 7 500 53 106 38 109 38 90 1z m538 -66 c47 12 -50 -54 -181
-122 -142 -75 -144 -75 -103 7 13 26 36 44 92 73 40 22 94 56 119 77 l45 38 3
-39 c3 -36 6 -39 25 -34z m412 16 l30 -32 -34 -28 c-65 -55 -228 -126 -247
-107 -7 7 44 107 54 107 4 0 37 24 72 54 71 59 75 59 125 6z m-327 -26 c-12
-45 -5 -64 24 -64 20 -1 18 -5 -21 -40 -25 -21 -89 -62 -143 -90 -54 -28 -112
-63 -128 -77 l-30 -25 0 34 c0 19 10 54 23 78 17 36 35 52 84 79 34 19 93 58
130 87 38 29 69 53 70 53 1 1 -3 -15 -9 -35z m-648 -14 c0 -12 7 -20 18 -21
28 -1 -123 -56 -212 -78 -147 -36 -237 -45 -421 -44 -189 1 -304 11 -308 28
-1 5 12 19 30 31 30 20 45 22 224 23 261 1 455 21 589 60 84 24 80 24 80 1z
m1074 -44 l40 -33 -45 -32 c-78 -58 -189 -105 -189 -81 0 37 38 95 89 135 31
24 58 44 61 44 3 1 23 -14 44 -33z m-1026 -44 c-10 -39 -17 -46 -67 -71 -72
-37 -183 -67 -291 -81 -104 -12 -220 -13 -220 -1 0 14 59 60 83 66 12 2 67 12
122 21 111 18 234 51 322 87 32 13 59 23 60 23 1 -1 -3 -21 -9 -44z m152 -43
c-65 -59 -213 -137 -329 -173 -86 -27 -231 -46 -231 -30 0 5 10 21 23 36 18
22 38 30 111 43 90 16 202 54 245 82 19 12 25 12 31 2 6 -9 17 -5 42 16 35 30
150 87 158 78 3 -3 -20 -27 -50 -54z m494 11 c-6 -25 -3 -30 19 -35 14 -4 35
-4 46 0 32 10 25 1 -32 -43 -71 -53 -151 -98 -220 -121 -66 -23 -69 -19 -32
55 20 41 34 55 73 73 27 12 70 40 98 61 27 22 50 39 51 39 1 1 0 -12 -3 -29z
m170 -17 c-4 -10 -9 -35 -12 -56 -5 -46 -44 -80 -177 -156 -49 -29 -100 -59
-112 -68 -23 -15 -23 -15 -23 30 l0 46 73 38 c73 39 160 103 209 154 30 33 55
39 42 12z m-640 -30 c-6 -26 11 -49 28 -37 8 5 2 -1 -12 -14 -41 -36 -206
-132 -299 -173 -91 -40 -209 -75 -219 -64 -7 7 25 70 43 85 6 5 51 21 99 35
95 27 258 106 321 154 22 17 41 31 42 31 0 0 -1 -8 -3 -17z m98 -75 c-4 -43
-10 -53 -63 -102 -32 -30 -83 -66 -113 -80 -57 -27 -176 -47 -176 -29 0 18 65
70 140 112 41 23 107 66 145 95 39 30 70 53 71 52 0 0 -1 -22 -4 -48z m663 30
c-20 -66 -201 -194 -318 -226 l-38 -11 18 32 c11 18 45 47 82 68 34 20 84 54
109 75 37 31 98 65 150 83 2 0 0 -9 -3 -21z m-550 -71 c-8 -20 -15 -48 -15
-63 0 -24 3 -26 28 -21 15 3 35 9 45 12 27 11 20 -11 -10 -33 -64 -45 -210
-102 -260 -102 l-23 0 21 43 c24 48 97 127 117 127 8 0 34 18 60 40 25 22 47
39 49 37 2 -2 -4 -20 -12 -40z"/>
</g>
</svg>
